<svg xmlns="http://www.w3.org/2000/svg" xmlns:xlink="http://www.w3.org/1999/xlink" version="1.1" id="타이틀" x="0px" y="0px" viewBox="0 0 17 17" style="enable-background:new 0 0 17 17;" xml:space="preserve"><style type="text/css">
	.st0{fill:none;stroke:#FFFFFF;stroke-width:1.5;stroke-linecap:round;stroke-linejoin:round;}
</style><g><g><g><path class="st0" d="M13.5,2.2h1.2c0.1,0,0.2,0,0.3,0c0.1,0,0.2,0,0.3,0.1c0.1,0,0.2,0.1,0.2,0.1c0.1,0,0.1,0.1,0.2,0.2     c0.1,0.1,0.1,0.1,0.2,0.2C15.9,2.9,16,2.9,16,3c0,0.1,0.1,0.2,0.1,0.3c0,0.1,0,0.2,0,0.3v1.4v0.7v2V9v1.4v1.4V13v1.4     c0,0.1,0,0.2,0,0.3c0,0.1,0,0.2-0.1,0.3c0,0.1-0.1,0.2-0.1,0.2c0,0.1-0.1,0.1-0.2,0.2c-0.1,0.1-0.1,0.1-0.2,0.2     c-0.1,0-0.2,0.1-0.2,0.1c-0.1,0-0.2,0.1-0.3,0.1c-0.1,0-0.2,0-0.3,0h-1.6h-1.6h-1.6H8.5H6.9H5.4H3.8H2.3c-0.1,0-0.2,0-0.3,0     c-0.1,0-0.2,0-0.3-0.1c-0.1,0-0.2-0.1-0.2-0.1c-0.1,0-0.1-0.1-0.2-0.2c-0.1-0.1-0.1-0.1-0.2-0.2C1.1,15.1,1,15,1,14.9     c0-0.1-0.1-0.2-0.1-0.3c0-0.1,0-0.2,0-0.3V13v-1.4v-1.4V9V7.6v-2V4.9V3.6c0-0.1,0-0.2,0-0.3c0-0.1,0-0.2,0.1-0.3     c0-0.1,0.1-0.2,0.1-0.2c0.1-0.1,0.1-0.1,0.2-0.2c0.1-0.1,0.1-0.1,0.2-0.2c0.1-0.1,0.2-0.1,0.2-0.1c0.1,0,0.2-0.1,0.3-0.1     c0.1,0,0.2,0,0.3,0h1.2"></path><polyline class="st0" points="7.3,2.2 8.5,2.2 9.7,2.2    "></polyline><g><line class="st0" x1="5.4" y1="1.2" x2="5.4" y2="2.9"></line><line class="st0" x1="11.6" y1="1.2" x2="11.6" y2="2.9"></line></g></g><line class="st0" x1="1" y1="5.4" x2="15.8" y2="5.4"></line></g><g><g><line class="st0" x1="4.1" y1="8.9" x2="5.4" y2="8.9"></line><line class="st0" x1="7.9" y1="8.9" x2="9.1" y2="8.9"></line><line class="st0" x1="11.6" y1="8.9" x2="12.9" y2="8.9"></line></g><g><line class="st0" x1="4.1" y1="12.1" x2="5.4" y2="12.1"></line><line class="st0" x1="7.9" y1="12.1" x2="9.1" y2="12.1"></line><line class="st0" x1="11.6" y1="12.1" x2="12.9" y2="12.1"></line></g></g></g></svg>